Torque
version=1
nRows=14
nColumns=28
inDegrees=yes
endheader
time	lumbar_ext	lumbar_bend	lumbar_rot	shoulder_flex_r	shoulder_add_r	shoulder_rot_r	elbow_flex_r	pro_sup_r	wrist_flex_r	wrist_dev_r	shoulder_flex_l	shoulder_add_l	shoulder_rot_l	elbow_flex_l	pro_sup_l	wrist_flex_l	wrist_dev_l	hip_flexion_r	hip_adduction_r	hip_rotation_r	knee_angle_r	ankle_angle_r	hip_flexion_l	hip_adduction_l	hip_rotation_l	knee_angle_l	ankle_angle_l
11.450000	28.237202	4.597918	-1.402157	1.510201	-1.798199	0.048732	1.128251	9.053695	0.408919	-0.018950	1.830490	-0.837995	-0.007613	1.351066	8.235738	-4.127340	-0.823557	24.498786	-30.991678	-54.149035	142.473650	2.139492	-43.840418	-33.226686	-128.599218	12.268031	-71.311407
11.460000	28.225315	4.791427	-1.221881	1.347273	-1.414621	0.079779	1.069110	9.053028	0.447513	-0.002295	2.028144	-1.345162	-0.038206	1.348337	8.305609	-4.120167	-0.801014	22.945821	-29.368233	-56.659573	142.250025	2.184063	-42.269711	-33.375860	-127.360377	13.148365	-72.336912
11.470000	28.145132	4.899020	-1.125798	1.216730	-1.076984	0.182761	1.070077	8.981514	0.501595	0.014647	2.201308	-1.701991	-0.120706	1.373620	8.336909	-4.122118	-0.777126	21.299848	-28.241318	-58.987820	142.645597	2.386904	-40.766381	-33.344858	-126.302236	14.020446	-73.452286
11.480000	28.143778	5.006385	-1.083281	1.080479	-0.853022	0.254034	1.086131	8.906732	0.544271	0.037217	2.327766	-1.870333	-0.170236	1.311729	8.390000	-4.126361	-0.764944	19.774515	-27.035842	-61.021748	143.389267	2.504679	-39.183861	-33.250975	-125.326529	14.909157	-74.424170
11.490000	28.187108	5.085543	-1.046528	1.005038	-0.775705	0.344747	1.115261	8.842830	0.559053	0.073951	2.381028	-1.902245	-0.222797	1.291262	8.461148	-4.124318	-0.766127	18.321795	-26.019891	-62.849978	144.290239	2.580870	-37.741031	-33.044549	-124.518031	15.878951	-75.414740
11.500000	28.294249	5.174116	-1.003705	0.945459	-0.836360	0.409678	1.134747	8.817114	0.533424	0.123281	2.377581	-1.846538	-0.236046	1.266369	8.552104	-4.110854	-0.786624	16.947224	-25.024388	-64.469612	145.130700	2.538571	-36.385165	-32.843428	-123.876661	16.994639	-76.297507
11.510000	28.452473	5.258739	-0.918281	0.882067	-1.001808	0.451009	1.148936	8.819368	0.470052	0.181347	2.330429	-1.744876	-0.232242	1.291364	8.638449	-4.083739	-0.822525	15.673511	-24.145885	-65.912515	145.795369	2.373325	-35.076227	-32.606525	-123.454204	18.297324	-77.010915
11.520000	28.559735	5.334206	-0.797740	0.825617	-1.160720	0.454258	1.124631	8.826761	0.383615	0.241736	2.308063	-1.633917	-0.198644	1.337523	8.689139	-4.044179	-0.868293	14.324915	-23.429822	-67.195049	146.221483	2.196692	-33.916165	-32.285102	-123.235533	19.726230	-77.500001
11.530000	28.698442	5.397437	-0.597288	0.691768	-1.305803	0.410273	1.116899	8.822066	0.292928	0.292860	2.318594	-1.504397	-0.168013	1.427702	8.706272	-3.999679	-0.916576	13.190411	-22.671217	-68.244825	146.411759	1.905319	-32.519069	-31.787014	-123.182800	21.339107	-77.458188
11.540000	28.639972	5.381238	-0.350133	0.624022	-1.319438	0.364645	1.085879	8.755451	0.225222	0.341390	2.446157	-1.397983	-0.144884	1.553484	8.674137	-3.956810	-0.949258	11.849459	-22.275884	-69.183393	146.430606	1.833912	-31.356714	-30.904414	-123.246369	22.931559	-77.159479
11.550000	28.598795	5.370477	-0.043185	0.451148	-1.268112	0.264208	1.030543	8.644600	0.183989	0.372906	2.610432	-1.279480	-0.114628	1.641322	8.626584	-3.922496	-0.968659	10.709946	-21.497870	-69.873601	146.289200	1.757091	-29.841531	-29.784980	-123.263070	24.617419	-76.142147
11.560000	28.369188	5.247740	0.316606	0.397022	-1.116623	0.223763	1.010776	8.436603	0.189166	0.403809	2.778248	-1.190218	-0.106513	1.790783	8.549275	-3.898191	-0.954121	9.459416	-21.154320	-70.579402	146.207231	1.985504	-28.567536	-28.202649	-123.291823	26.124653	-74.958697
11.570000	28.115218	5.124998	0.713983	0.326321	-0.879140	0.148352	0.961183	8.177928	0.226804	0.424805	2.839980	-1.086931	-0.073273	1.808307	8.453865	-3.882065	-0.914077	8.375626	-20.494282	-71.199824	146.228260	2.276838	-27.242354	-26.611856	-123.242256	27.488534	-73.320329
11.580000	27.775483	4.919445	1.112567	0.388941	-0.575303	0.132212	0.969850	7.847445	0.298405	0.442574	2.761403	-1.037465	-0.046872	1.811391	8.323615	-3.870383	-0.838056	7.394053	-20.210468	-72.007951	146.601570	2.765581	-26.167586	-24.833884	-123.170024	28.481700	-71.650758
